<svg width="32" height="32" viewBox="0 0 32 32" fill="none" xmlns="http://www.w3.org/2000/svg">
<g clip-path="url(#clip0_6284_1927)">
<path d="M32 16C32 24.8366 24.8366 32 16 32C7.16344 32 4.12308e-09 24.8366 4.12308e-09 16C4.12308e-09 7.16344 7.16344 0 16 0C24.8366 0 32 7.16344 32 16Z" fill="black"/>
<path d="M13.5117 0.139635C11.7509 0.423573 9.0579 1.40445 7.55605 2.3337C6.18366 3.18551 3.4389 5.79257 3.4389 6.2572C3.4389 6.72182 8.69538 18.2084 8.90253 18.2084C9.00611 18.2084 9.21326 17.8728 9.39452 17.434C9.67935 16.7629 9.62757 16.5048 9.13558 15.4464C6.96048 10.8518 5.25148 7.03157 5.25148 6.69601C5.25148 5.68932 8.74717 3.28876 11.5437 2.3337C15.0653 1.17213 19.7262 1.55932 22.8076 3.31457C25.4229 4.8117 27.6239 7.0832 28.9186 9.61282C30.8607 13.4847 30.8607 18.5698 28.9186 22.39C28.4266 23.3709 28.2972 23.9904 28.3489 24.9971L28.4266 26.3393L29.5401 24.6615C31.2491 22.0544 32 19.4732 32 16.0143C32 13.5879 31.8964 12.8652 31.3009 11.1099C30.3169 8.24476 29.1258 6.41207 26.8989 4.34707C23.9729 1.61095 20.8915 0.29451 16.8261 0.0363846C15.7903 -0.0410529 14.3144 0.0105726 13.5117 0.139635Z" fill="#FE0A45"/>
<path d="M1.56163 9.04469C0.00798988 12.168 -0.432208 16.5819 0.448188 19.9892C1.50984 24.0676 4.79838 28.2234 8.52712 30.1593C14.0425 32.9987 20.5419 32.5341 25.5395 28.8945L26.7565 28.0169V10.2063L25.9279 10.2837C25.177 10.3353 24.9957 10.5676 23.6751 12.9682C22.8724 14.4395 22.1474 15.5753 22.0438 15.5494C21.9143 15.5236 21.1634 14.3363 20.3607 12.9424C19.0919 10.7999 18.7553 10.3611 18.1597 10.2837C17.7454 10.2321 17.4347 10.3095 17.4347 10.4902C17.4347 10.8258 21.8884 18.4662 22.0697 18.4662C22.1474 18.4404 22.9242 17.2014 23.7787 15.6785L25.3323 12.9166L25.4877 26.8553L24.7109 27.5006C21.5259 30.2109 15.9069 31.1402 11.6344 29.7205C8.31997 28.6106 6.09308 26.9586 4.20282 24.2999C2.44203 21.8219 1.61342 19.1632 1.63931 16.0399C1.63931 13.4844 1.79468 12.6068 2.64918 10.516C3.14117 9.25119 3.16706 9.09632 2.80454 8.39938C2.5715 7.96057 2.36435 7.625 2.31256 7.625C2.28666 7.625 1.92415 8.27032 1.56163 9.04469Z" fill="white"/>
<path d="M14.4066 10.389C14.2253 10.5181 13.086 12.7122 11.8689 15.2934L9.66796 19.9913L10.0823 20.8431C10.393 21.411 10.5742 21.5658 10.6519 21.2819C10.7296 21.0754 11.8689 18.5974 13.2154 15.7838C14.536 12.9703 15.6236 10.5439 15.6236 10.4148C15.6236 10.1309 14.8468 10.1051 14.4066 10.389Z" fill="#FE0A45"/>
<path d="M17.1789 17.4376V21.8257L17.9039 21.7483L18.603 21.6708L18.6807 18.6508C18.7325 15.8114 18.7066 15.5533 18.0592 14.3143C17.6967 13.6173 17.3342 13.0236 17.2824 13.0236C17.2306 13.0236 17.1789 15.0112 17.1789 17.4376Z" fill="white"/>
</g>
<defs>
<clipPath id="clip0_6284_1927">
<rect width="32" height="32" rx="16" fill="white"/>
</clipPath>
</defs>
</svg>
